<svg id="e1fD8Byz2PX1" xmlns="http://www.w3.org/2000/svg" xmlns:xlink="http://www.w3.org/1999/xlink" viewBox="0 0 500 500" shape-rendering="geometricPrecision" text-rendering="geometricPrecision"><rect width="471.752223" height="250.932034" rx="34" ry="34" transform="matrix(1 0 0 1.019311 14.123889 95.082144)" fill="#8897a6" stroke-width="0"/><rect width="471.752223" height="250.932034" rx="34" ry="34" transform="matrix(.514056 0 0 0.507032 128.74647 159.355749)" fill="#8897a6" stroke="#8897a6"/><path d="M29.996555,101.806711c102.06617-40.82646,332.662263-40.48751,433.881043,0" transform="translate(0-2.164829)" fill="#d2dbed" stroke="#636d77"/><path d="M29.996555,101.806711c102.06617-40.82646,332.662263-40.48751,433.881043,0" transform="matrix(.841943 0 0 0.841943 39.030134 26.762861)" fill="#8897a6" stroke="#3f5787"/><path d="M29.996555,101.806711c102.06617-40.82646,332.662263-40.48751,433.881043,0" transform="matrix(-1 0 0-1 493.874153 452.666637)" fill="#d2dbed" stroke="#636d77"/><path d="M29.996555,101.806711c102.06617-40.82646,332.662263-40.48751,433.881043,0" transform="matrix(-.841943 0 0-.841943 457.906943 426.148715)" fill="#8897a6" stroke="#3f5787"/><path d="M66.55889,111.76834c-16.11475,6.4459-13.65101,42.07748-16.12108,56.89794-4.98708,29.92248-4.480993,133.230736,9.482987,158.365916c4.63425,8.34165,6.204005,8.096941,13.276185,13.401071" transform="matrix(.858113 0 0 1 6.69759 0)" fill="none" stroke="#636d77"/><path d="M66.55889,111.76834c-16.11475,6.4459-13.65101,42.07748-16.12108,56.89794-4.98708,29.92248-4.480993,133.230736,9.482987,158.365916c4.63425,8.34165,6.204005,8.096941,13.276185,13.401071" transform="matrix(-.858094 0.005732-.006856-1.026297 487.72831 456.794673)" fill="none" stroke="#636d77"/></svg>
